<?xml version="1.0" encoding="UTF-8"?>
<svg xmlns="http://www.w3.org/2000/svg" version="1.1" xmlns:xlink="http://www.w3.org/1999/xlink" viewBox="0 0 376.076 544.848">
  <defs>
    <clipPath id="clippath">
      <rect x="0" y="0" width="376.076" height="544.849" style="fill: #005faa;"/>
    </clipPath>
  </defs>
  <!-- Generator: Adobe Illustrator 28.7.7, SVG Export Plug-In . SVG Version: 1.2.0 Build 194)  -->
  <g style="isolation: isolate;">
    <g id="Layer_1">
      <g>
        <g>
          <rect x="0" y="0" width="376.076" height="544.849" style="fill: #005faa;"/>
          <g style="clip-path: url(#clippath);">
            <g style="mix-blend-mode: screen; opacity: .45;">
              <g>
                <g>
                  <path d="M407.497,17.736H-31.421c-.183,0-.332-.149-.332-.332s.149-.332.332-.332h438.918c.183,0,.332.149.332.332s-.149.332-.332.332Z" style="fill: #4c00e7;"/>
                  <path d="M407.497,54.054H-31.421c-.183,0-.332-.149-.332-.332s.149-.332.332-.332h438.918c.183,0,.332.149.332.332s-.149.332-.332.332Z" style="fill: #4c00e7;"/>
                  <path d="M407.497,90.372H-31.421c-.183,0-.332-.149-.332-.332s.149-.332.332-.332h438.918c.183,0,.332.149.332.332s-.149.332-.332.332Z" style="fill: #4c00e7;"/>
                  <path d="M407.497,126.69H-31.421c-.183,0-.332-.149-.332-.332s.149-.332.332-.332h438.918c.183,0,.332.149.332.332s-.149.332-.332.332Z" style="fill: #4c00e7;"/>
                  <path d="M407.497,163.008H-31.421c-.183,0-.332-.148-.332-.332s.149-.332.332-.332h438.918c.183,0,.332.149.332.332s-.149.332-.332.332Z" style="fill: #4c00e7;"/>
                  <path d="M407.497,199.327H-31.421c-.183,0-.332-.148-.332-.332s.149-.332.332-.332h438.918c.183,0,.332.149.332.332s-.149.332-.332.332Z" style="fill: #4c00e7;"/>
                  <path d="M407.497,235.645H-31.421c-.183,0-.332-.148-.332-.332s.149-.332.332-.332h438.918c.183,0,.332.149.332.332s-.149.332-.332.332Z" style="fill: #4c00e7;"/>
                  <path d="M407.497,271.963H-31.421c-.183,0-.332-.149-.332-.332s.149-.332.332-.332h438.918c.183,0,.332.148.332.332s-.149.332-.332.332Z" style="fill: #4c00e7;"/>
                  <path d="M407.497,308.281H-31.421c-.183,0-.332-.149-.332-.332s.149-.332.332-.332h438.918c.183,0,.332.148.332.332s-.149.332-.332.332Z" style="fill: #4c00e7;"/>
                  <path d="M407.497,344.599H-31.421c-.183,0-.332-.149-.332-.332s.149-.332.332-.332h438.918c.183,0,.332.148.332.332s-.149.332-.332.332Z" style="fill: #4c00e7;"/>
                  <path d="M407.497,380.917H-31.421c-.183,0-.332-.149-.332-.332s.149-.332.332-.332h438.918c.183,0,.332.149.332.332s-.149.332-.332.332Z" style="fill: #4c00e7;"/>
                  <path d="M407.497,417.235H-31.421c-.183,0-.332-.148-.332-.332s.149-.332.332-.332h438.918c.183,0,.332.149.332.332s-.149.332-.332.332Z" style="fill: #4c00e7;"/>
                  <path d="M407.497,453.553H-31.421c-.183,0-.332-.148-.332-.332s.149-.332.332-.332h438.918c.183,0,.332.149.332.332s-.149.332-.332.332Z" style="fill: #4c00e7;"/>
                  <path d="M407.497,489.871H-31.421c-.183,0-.332-.148-.332-.332s.149-.332.332-.332h438.918c.183,0,.332.149.332.332s-.149.332-.332.332Z" style="fill: #4c00e7;"/>
                  <path d="M407.497,526.19H-31.421c-.183,0-.332-.149-.332-.332s.149-.332.332-.332h438.918c.183,0,.332.149.332.332s-.149.332-.332.332Z" style="fill: #4c00e7;"/>
                </g>
                <g style="opacity: .2;">
                  <path d="M407.497,18.566H-31.421c-.642,0-1.163-.521-1.163-1.163s.521-1.163,1.163-1.163h438.918c.642,0,1.162.521,1.162,1.163s-.521,1.163-1.162,1.163Z" style="fill: #7ed1e2;"/>
                  <path d="M407.497,54.885H-31.421c-.642,0-1.163-.521-1.163-1.163s.521-1.162,1.163-1.162h438.918c.642,0,1.162.521,1.162,1.162s-.521,1.163-1.162,1.163Z" style="fill: #7ed1e2;"/>
                  <path d="M407.497,91.203H-31.421c-.642,0-1.163-.521-1.163-1.163s.521-1.163,1.163-1.163h438.918c.642,0,1.162.521,1.162,1.163s-.521,1.163-1.162,1.163Z" style="fill: #7ed1e2;"/>
                  <path d="M407.497,127.521H-31.421c-.642,0-1.163-.521-1.163-1.163s.521-1.163,1.163-1.163h438.918c.642,0,1.162.521,1.162,1.163s-.521,1.163-1.162,1.163Z" style="fill: #7ed1e2;"/>
                  <path d="M407.497,163.839H-31.421c-.642,0-1.163-.521-1.163-1.162s.521-1.163,1.163-1.163h438.918c.642,0,1.162.521,1.162,1.163s-.521,1.162-1.162,1.162Z" style="fill: #7ed1e2;"/>
                  <path d="M407.497,200.157H-31.421c-.642,0-1.163-.521-1.163-1.162s.521-1.163,1.163-1.163h438.918c.642,0,1.162.521,1.162,1.163s-.521,1.162-1.162,1.162Z" style="fill: #7ed1e2;"/>
                  <path d="M407.497,236.475H-31.421c-.642,0-1.163-.521-1.163-1.163s.521-1.163,1.163-1.163h438.918c.642,0,1.162.521,1.162,1.163s-.521,1.163-1.162,1.163Z" style="fill: #7ed1e2;"/>
                  <path d="M407.497,272.793H-31.421c-.642,0-1.163-.521-1.163-1.163s.521-1.162,1.163-1.162h438.918c.642,0,1.162.521,1.162,1.162s-.521,1.163-1.162,1.163Z" style="fill: #7ed1e2;"/>
                  <path d="M407.497,309.111H-31.421c-.642,0-1.163-.521-1.163-1.163s.521-1.162,1.163-1.162h438.918c.642,0,1.162.521,1.162,1.162s-.521,1.163-1.162,1.163Z" style="fill: #7ed1e2;"/>
                  <path d="M407.497,345.429H-31.421c-.642,0-1.163-.521-1.163-1.163s.521-1.162,1.163-1.162h438.918c.642,0,1.162.521,1.162,1.162s-.521,1.163-1.162,1.163Z" style="fill: #7ed1e2;"/>
                  <path d="M407.497,381.748H-31.421c-.642,0-1.163-.521-1.163-1.162s.521-1.163,1.163-1.163h438.918c.642,0,1.162.521,1.162,1.163s-.521,1.162-1.162,1.162Z" style="fill: #7ed1e2;"/>
                  <path d="M407.497,418.066H-31.421c-.642,0-1.163-.521-1.163-1.162s.521-1.163,1.163-1.163h438.918c.642,0,1.162.521,1.162,1.163s-.521,1.162-1.162,1.162Z" style="fill: #7ed1e2;"/>
                  <path d="M407.497,454.384H-31.421c-.642,0-1.163-.521-1.163-1.162s.521-1.163,1.163-1.163h438.918c.642,0,1.162.521,1.162,1.163s-.521,1.162-1.162,1.162Z" style="fill: #7ed1e2;"/>
                  <path d="M407.497,490.702H-31.421c-.642,0-1.163-.521-1.163-1.162s.521-1.163,1.163-1.163h438.918c.642,0,1.162.521,1.162,1.163s-.521,1.162-1.162,1.162Z" style="fill: #7ed1e2;"/>
                  <path d="M407.497,527.02H-31.421c-.642,0-1.163-.521-1.163-1.163s.521-1.162,1.163-1.162h438.918c.642,0,1.162.521,1.162,1.162s-.521,1.163-1.162,1.163Z" style="fill: #7ed1e2;"/>
                </g>
                <g style="opacity: .25;">
                  <path d="M407.497,18.4H-31.421c-.55,0-.996-.446-.996-.997s.446-.997.996-.997h438.918c.55,0,.996.446.996.997s-.446.997-.996.997Z" style="fill: #64cade;"/>
                  <path d="M407.497,54.718H-31.421c-.55,0-.996-.446-.996-.997s.446-.996.996-.996h438.918c.55,0,.996.446.996.996s-.446.997-.996.997Z" style="fill: #64cade;"/>
                  <path d="M407.497,91.037H-31.421c-.55,0-.996-.446-.996-.997s.446-.996.996-.996h438.918c.55,0,.996.446.996.996s-.446.997-.996.997Z" style="fill: #64cade;"/>
                  <path d="M407.497,127.355H-31.421c-.55,0-.996-.446-.996-.996s.446-.996.996-.996h438.918c.55,0,.996.446.996.996s-.446.996-.996.996Z" style="fill: #64cade;"/>
                  <path d="M407.497,163.673H-31.421c-.55,0-.996-.446-.996-.996s.446-.996.996-.996h438.918c.55,0,.996.446.996.996s-.446.996-.996.996Z" style="fill: #64cade;"/>
                  <path d="M407.497,199.991H-31.421c-.55,0-.996-.446-.996-.996s.446-.996.996-.996h438.918c.55,0,.996.446.996.996s-.446.996-.996.996Z" style="fill: #64cade;"/>
                  <path d="M407.497,236.309H-31.421c-.55,0-.996-.446-.996-.997s.446-.996.996-.996h438.918c.55,0,.996.446.996.996s-.446.997-.996.997Z" style="fill: #64cade;"/>
                  <path d="M407.497,272.627H-31.421c-.55,0-.996-.446-.996-.996s.446-.996.996-.996h438.918c.55,0,.996.446.996.996s-.446.996-.996.996Z" style="fill: #64cade;"/>
                  <path d="M407.497,308.945H-31.421c-.55,0-.996-.446-.996-.996s.446-.996.996-.996h438.918c.55,0,.996.446.996.996s-.446.996-.996.996Z" style="fill: #64cade;"/>
                  <path d="M407.497,345.263H-31.421c-.55,0-.996-.446-.996-.996s.446-.996.996-.996h438.918c.55,0,.996.446.996.996s-.446.996-.996.996Z" style="fill: #64cade;"/>
                  <path d="M407.497,381.581H-31.421c-.55,0-.996-.446-.996-.996s.446-.996.996-.996h438.918c.55,0,.996.446.996.996s-.446.996-.996.996Z" style="fill: #64cade;"/>
                  <path d="M407.497,417.9H-31.421c-.55,0-.996-.446-.996-.996s.446-.996.996-.996h438.918c.55,0,.996.446.996.996s-.446.996-.996.996Z" style="fill: #64cade;"/>
                  <path d="M407.497,454.218H-31.421c-.55,0-.996-.446-.996-.996s.446-.996.996-.996h438.918c.55,0,.996.446.996.996s-.446.996-.996.996Z" style="fill: #64cade;"/>
                  <path d="M407.497,490.536H-31.421c-.55,0-.996-.446-.996-.996s.446-.996.996-.996h438.918c.55,0,.996.446.996.996s-.446.996-.996.996Z" style="fill: #64cade;"/>
                  <path d="M407.497,526.854H-31.421c-.55,0-.996-.446-.996-.996s.446-.996.996-.996h438.918c.55,0,.996.446.996.996s-.446.996-.996.996Z" style="fill: #64cade;"/>
                </g>
                <g style="opacity: .3;">
                  <path d="M407.497,18.234H-31.421c-.459,0-.83-.372-.83-.83s.372-.83.83-.83h438.918c.459,0,.83.372.83.83s-.372.83-.83.83Z" style="fill: #00bad5;"/>
                  <path d="M407.497,54.552H-31.421c-.459,0-.83-.372-.83-.83s.372-.83.83-.83h438.918c.459,0,.83.372.83.83s-.372.83-.83.83Z" style="fill: #00bad5;"/>
                  <path d="M407.497,90.871H-31.421c-.459,0-.83-.372-.83-.83s.372-.83.83-.83h438.918c.459,0,.83.372.83.83s-.372.83-.83.83Z" style="fill: #00bad5;"/>
                  <path d="M407.497,127.188H-31.421c-.459,0-.83-.372-.83-.83s.372-.83.83-.83h438.918c.459,0,.83.372.83.83s-.372.83-.83.83Z" style="fill: #00bad5;"/>
                  <path d="M407.497,163.507H-31.421c-.459,0-.83-.372-.83-.83s.372-.83.83-.83h438.918c.459,0,.83.372.83.83s-.372.83-.83.83Z" style="fill: #00bad5;"/>
                  <path d="M407.497,199.825H-31.421c-.459,0-.83-.372-.83-.83s.372-.83.83-.83h438.918c.459,0,.83.372.83.83s-.372.83-.83.83Z" style="fill: #00bad5;"/>
                  <path d="M407.497,236.143H-31.421c-.459,0-.83-.372-.83-.83s.372-.83.83-.83h438.918c.459,0,.83.372.83.83s-.372.83-.83.83Z" style="fill: #00bad5;"/>
                  <path d="M407.497,272.461H-31.421c-.459,0-.83-.372-.83-.83s.372-.83.83-.83h438.918c.459,0,.83.372.83.83s-.372.83-.83.83Z" style="fill: #00bad5;"/>
                  <path d="M407.497,308.779H-31.421c-.459,0-.83-.372-.83-.83s.372-.83.83-.83h438.918c.459,0,.83.372.83.83s-.372.83-.83.83Z" style="fill: #00bad5;"/>
                  <path d="M407.497,345.097H-31.421c-.459,0-.83-.372-.83-.83s.372-.83.83-.83h438.918c.459,0,.83.372.83.83s-.372.83-.83.83Z" style="fill: #00bad5;"/>
                  <path d="M407.497,381.415H-31.421c-.459,0-.83-.372-.83-.83s.372-.83.83-.83h438.918c.459,0,.83.372.83.83s-.372.83-.83.83Z" style="fill: #00bad5;"/>
                  <path d="M407.497,417.734H-31.421c-.459,0-.83-.372-.83-.83s.372-.83.83-.83h438.918c.459,0,.83.372.83.83s-.372.83-.83.83Z" style="fill: #00bad5;"/>
                  <path d="M407.497,454.052H-31.421c-.459,0-.83-.372-.83-.83s.372-.83.83-.83h438.918c.459,0,.83.372.83.83s-.372.83-.83.83Z" style="fill: #00bad5;"/>
                  <path d="M407.497,490.37H-31.421c-.459,0-.83-.372-.83-.83s.372-.83.83-.83h438.918c.459,0,.83.372.83.83s-.372.83-.83.83Z" style="fill: #00bad5;"/>
                  <path d="M407.497,526.688H-31.421c-.459,0-.83-.372-.83-.83s.372-.83.83-.83h438.918c.459,0,.83.372.83.83s-.372.83-.83.83Z" style="fill: #00bad5;"/>
                </g>
                <g>
                  <path d="M407.497,18.068H-31.421c-.367,0-.664-.297-.664-.664s.297-.664.664-.664h438.918c.367,0,.664.297.664.664s-.297.664-.664.664Z" style="fill: #00bad5;"/>
                  <path d="M407.497,54.386H-31.421c-.367,0-.664-.297-.664-.664s.297-.664.664-.664h438.918c.367,0,.664.297.664.664s-.297.664-.664.664Z" style="fill: #00bad5;"/>
                  <path d="M407.497,90.705H-31.421c-.367,0-.664-.297-.664-.664s.297-.664.664-.664h438.918c.367,0,.664.297.664.664s-.297.664-.664.664Z" style="fill: #00bad5;"/>
                  <path d="M407.497,127.022H-31.421c-.367,0-.664-.297-.664-.664s.297-.664.664-.664h438.918c.367,0,.664.297.664.664s-.297.664-.664.664Z" style="fill: #00bad5;"/>
                  <path d="M407.497,163.341H-31.421c-.367,0-.664-.297-.664-.664s.297-.664.664-.664h438.918c.367,0,.664.297.664.664s-.297.664-.664.664Z" style="fill: #00bad5;"/>
                  <path d="M407.497,199.659H-31.421c-.367,0-.664-.297-.664-.664s.297-.664.664-.664h438.918c.367,0,.664.297.664.664s-.297.664-.664.664Z" style="fill: #00bad5;"/>
                  <path d="M407.497,235.977H-31.421c-.367,0-.664-.297-.664-.664s.297-.664.664-.664h438.918c.367,0,.664.297.664.664s-.297.664-.664.664Z" style="fill: #00bad5;"/>
                  <path d="M407.497,272.295H-31.421c-.367,0-.664-.297-.664-.664s.297-.664.664-.664h438.918c.367,0,.664.297.664.664s-.297.664-.664.664Z" style="fill: #00bad5;"/>
                  <path d="M407.497,308.613H-31.421c-.367,0-.664-.297-.664-.664s.297-.664.664-.664h438.918c.367,0,.664.297.664.664s-.297.664-.664.664Z" style="fill: #00bad5;"/>
                  <path d="M407.497,344.931H-31.421c-.367,0-.664-.297-.664-.664s.297-.664.664-.664h438.918c.367,0,.664.298.664.664s-.297.664-.664.664Z" style="fill: #00bad5;"/>
                  <path d="M407.497,381.249H-31.421c-.367,0-.664-.297-.664-.664s.297-.664.664-.664h438.918c.367,0,.664.297.664.664s-.297.664-.664.664Z" style="fill: #00bad5;"/>
                  <path d="M407.497,417.568H-31.421c-.367,0-.664-.297-.664-.664s.297-.664.664-.664h438.918c.367,0,.664.297.664.664s-.297.664-.664.664Z" style="fill: #00bad5;"/>
                  <path d="M407.497,453.885H-31.421c-.367,0-.664-.297-.664-.664s.297-.664.664-.664h438.918c.367,0,.664.297.664.664s-.297.664-.664.664Z" style="fill: #00bad5;"/>
                  <path d="M407.497,490.204H-31.421c-.367,0-.664-.297-.664-.664s.297-.664.664-.664h438.918c.367,0,.664.297.664.664s-.297.664-.664.664Z" style="fill: #00bad5;"/>
                  <path d="M407.497,526.522H-31.421c-.367,0-.664-.297-.664-.664s.297-.664.664-.664h438.918c.367,0,.664.297.664.664s-.297.664-.664.664Z" style="fill: #00bad5;"/>
                </g>
                <g>
                  <path d="M407.497,17.944H-31.421c-.298,0-.54-.242-.54-.54s.242-.54.54-.54h438.918c.298,0,.54.242.54.54s-.242.54-.54.54Z" style="fill: #31c1d9;"/>
                  <path d="M407.497,54.262H-31.421c-.298,0-.54-.242-.54-.54s.242-.54.54-.54h438.918c.298,0,.54.242.54.54s-.242.54-.54.54Z" style="fill: #31c1d9;"/>
                  <path d="M407.497,90.58H-31.421c-.298,0-.54-.242-.54-.54s.242-.54.54-.54h438.918c.298,0,.54.242.54.54s-.242.54-.54.54Z" style="fill: #31c1d9;"/>
                  <path d="M407.497,126.898H-31.421c-.298,0-.54-.242-.54-.54s.242-.54.54-.54h438.918c.298,0,.54.242.54.54s-.242.54-.54.54Z" style="fill: #31c1d9;"/>
                  <path d="M407.497,163.216H-31.421c-.298,0-.54-.242-.54-.54s.242-.54.54-.54h438.918c.298,0,.54.242.54.54s-.242.54-.54.54Z" style="fill: #31c1d9;"/>
                  <path d="M407.497,199.534H-31.421c-.298,0-.54-.242-.54-.54s.242-.54.54-.54h438.918c.298,0,.54.242.54.54s-.242.54-.54.54Z" style="fill: #31c1d9;"/>
                  <path d="M407.497,235.852H-31.421c-.298,0-.54-.242-.54-.54s.242-.54.54-.54h438.918c.298,0,.54.242.54.54s-.242.54-.54.54Z" style="fill: #31c1d9;"/>
                  <path d="M407.497,272.17H-31.421c-.298,0-.54-.242-.54-.54s.242-.54.54-.54h438.918c.298,0,.54.242.54.54s-.242.54-.54.54Z" style="fill: #31c1d9;"/>
                  <path d="M407.497,308.489H-31.421c-.298,0-.54-.242-.54-.54s.242-.54.54-.54h438.918c.298,0,.54.242.54.54s-.242.54-.54.54Z" style="fill: #31c1d9;"/>
                  <path d="M407.497,344.807H-31.421c-.298,0-.54-.242-.54-.54s.242-.54.54-.54h438.918c.298,0,.54.242.54.54s-.242.54-.54.54Z" style="fill: #31c1d9;"/>
                  <path d="M407.497,381.125H-31.421c-.298,0-.54-.242-.54-.54s.242-.54.54-.54h438.918c.298,0,.54.242.54.54s-.242.54-.54.54Z" style="fill: #31c1d9;"/>
                  <path d="M407.497,417.443H-31.421c-.298,0-.54-.242-.54-.54s.242-.54.54-.54h438.918c.298,0,.54.242.54.54s-.242.54-.54.54Z" style="fill: #31c1d9;"/>
                  <path d="M407.497,453.761H-31.421c-.298,0-.54-.242-.54-.54s.242-.54.54-.54h438.918c.298,0,.54.242.54.54s-.242.54-.54.54Z" style="fill: #31c1d9;"/>
                  <path d="M407.497,490.079H-31.421c-.298,0-.54-.242-.54-.54s.242-.54.54-.54h438.918c.298,0,.54.242.54.54s-.242.54-.54.54Z" style="fill: #31c1d9;"/>
                  <path d="M407.497,526.397H-31.421c-.298,0-.54-.242-.54-.54s.242-.54.54-.54h438.918c.298,0,.54.242.54.54s-.242.54-.54.54Z" style="fill: #31c1d9;"/>
                </g>
                <g>
                  <path d="M407.497,17.819H-31.421c-.229,0-.415-.186-.415-.415s.186-.415.415-.415h438.918c.229,0,.415.186.415.415s-.186.415-.415.415Z" style="fill: #63cade;"/>
                  <path d="M407.497,54.137H-31.421c-.229,0-.415-.186-.415-.415s.186-.415.415-.415h438.918c.229,0,.415.186.415.415s-.186.415-.415.415Z" style="fill: #63cade;"/>
                  <path d="M407.497,90.455H-31.421c-.229,0-.415-.186-.415-.415s.186-.415.415-.415h438.918c.229,0,.415.186.415.415s-.186.415-.415.415Z" style="fill: #63cade;"/>
                  <path d="M407.497,126.773H-31.421c-.229,0-.415-.186-.415-.415s.186-.415.415-.415h438.918c.229,0,.415.186.415.415s-.186.415-.415.415Z" style="fill: #63cade;"/>
                  <path d="M407.497,163.092H-31.421c-.229,0-.415-.186-.415-.415s.186-.415.415-.415h438.918c.229,0,.415.186.415.415s-.186.415-.415.415Z" style="fill: #63cade;"/>
                  <path d="M407.497,199.41H-31.421c-.229,0-.415-.186-.415-.415s.186-.415.415-.415h438.918c.229,0,.415.186.415.415s-.186.415-.415.415Z" style="fill: #63cade;"/>
                  <path d="M407.497,235.728H-31.421c-.229,0-.415-.186-.415-.415s.186-.415.415-.415h438.918c.229,0,.415.186.415.415s-.186.415-.415.415Z" style="fill: #63cade;"/>
                  <path d="M407.497,272.046H-31.421c-.229,0-.415-.186-.415-.415s.186-.415.415-.415h438.918c.229,0,.415.186.415.415s-.186.415-.415.415Z" style="fill: #63cade;"/>
                  <path d="M407.497,308.364H-31.421c-.229,0-.415-.186-.415-.415s.186-.415.415-.415h438.918c.229,0,.415.186.415.415s-.186.415-.415.415Z" style="fill: #63cade;"/>
                  <path d="M407.497,344.682H-31.421c-.229,0-.415-.186-.415-.415s.186-.415.415-.415h438.918c.229,0,.415.186.415.415s-.186.415-.415.415Z" style="fill: #63cade;"/>
                  <path d="M407.497,381H-31.421c-.229,0-.415-.186-.415-.415s.186-.415.415-.415h438.918c.229,0,.415.186.415.415s-.186.415-.415.415Z" style="fill: #63cade;"/>
                  <path d="M407.497,417.318H-31.421c-.229,0-.415-.186-.415-.415s.186-.415.415-.415h438.918c.229,0,.415.186.415.415s-.186.415-.415.415Z" style="fill: #63cade;"/>
                  <path d="M407.497,453.636H-31.421c-.229,0-.415-.186-.415-.415s.186-.415.415-.415h438.918c.229,0,.415.186.415.415s-.186.415-.415.415Z" style="fill: #63cade;"/>
                  <path d="M407.497,489.955H-31.421c-.229,0-.415-.186-.415-.415s.186-.415.415-.415h438.918c.229,0,.415.186.415.415s-.186.415-.415.415Z" style="fill: #63cade;"/>
                  <path d="M407.497,526.273H-31.421c-.229,0-.415-.186-.415-.415s.186-.415.415-.415h438.918c.229,0,.415.186.415.415s-.186.415-.415.415Z" style="fill: #63cade;"/>
                </g>
                <g>
                  <path d="M407.497,17.678H-31.421c-.151,0-.274-.123-.274-.274s.123-.274.274-.274h438.918c.151,0,.274.123.274.274s-.123.274-.274.274Z" style="fill: #8fd6e5;"/>
                  <path d="M407.497,53.996H-31.421c-.151,0-.274-.123-.274-.274s.123-.274.274-.274h438.918c.151,0,.274.123.274.274s-.123.274-.274.274Z" style="fill: #8fd6e5;"/>
                  <path d="M407.497,90.314H-31.421c-.151,0-.274-.123-.274-.274s.123-.274.274-.274h438.918c.151,0,.274.123.274.274s-.123.274-.274.274Z" style="fill: #8fd6e5;"/>
                  <path d="M407.497,126.632H-31.421c-.151,0-.274-.123-.274-.274s.123-.274.274-.274h438.918c.151,0,.274.123.274.274s-.123.274-.274.274Z" style="fill: #8fd6e5;"/>
                  <path d="M407.497,162.95H-31.421c-.151,0-.274-.123-.274-.274s.123-.274.274-.274h438.918c.151,0,.274.123.274.274s-.123.274-.274.274Z" style="fill: #8fd6e5;"/>
                  <path d="M407.497,199.269H-31.421c-.151,0-.274-.123-.274-.274s.123-.274.274-.274h438.918c.151,0,.274.123.274.274s-.123.274-.274.274Z" style="fill: #8fd6e5;"/>
                  <path d="M407.497,235.587H-31.421c-.151,0-.274-.123-.274-.274s.123-.274.274-.274h438.918c.151,0,.274.123.274.274s-.123.274-.274.274Z" style="fill: #8fd6e5;"/>
                  <path d="M407.497,271.905H-31.421c-.151,0-.274-.123-.274-.274s.123-.274.274-.274h438.918c.151,0,.274.123.274.274s-.123.274-.274.274Z" style="fill: #8fd6e5;"/>
                  <path d="M407.497,308.223H-31.421c-.151,0-.274-.123-.274-.274s.123-.274.274-.274h438.918c.151,0,.274.123.274.274s-.123.274-.274.274Z" style="fill: #8fd6e5;"/>
                  <path d="M407.497,344.541H-31.421c-.151,0-.274-.123-.274-.274s.123-.274.274-.274h438.918c.151,0,.274.123.274.274s-.123.274-.274.274Z" style="fill: #8fd6e5;"/>
                  <path d="M407.497,380.859H-31.421c-.151,0-.274-.123-.274-.274s.123-.274.274-.274h438.918c.151,0,.274.123.274.274s-.123.274-.274.274Z" style="fill: #8fd6e5;"/>
                  <path d="M407.497,417.177H-31.421c-.151,0-.274-.123-.274-.274s.123-.274.274-.274h438.918c.151,0,.274.123.274.274s-.123.274-.274.274Z" style="fill: #8fd6e5;"/>
                  <path d="M407.497,453.495H-31.421c-.151,0-.274-.123-.274-.274s.123-.274.274-.274h438.918c.151,0,.274.123.274.274s-.123.274-.274.274Z" style="fill: #8fd6e5;"/>
                  <path d="M407.497,489.813H-31.421c-.151,0-.274-.123-.274-.274s.123-.274.274-.274h438.918c.151,0,.274.123.274.274s-.123.274-.274.274Z" style="fill: #8fd6e5;"/>
                  <path d="M407.497,526.132H-31.421c-.151,0-.274-.123-.274-.274s.123-.274.274-.274h438.918c.151,0,.274.123.274.274s-.123.274-.274.274Z" style="fill: #8fd6e5;"/>
                </g>
                <g>
                  <path d="M407.497,17.512H-31.421c-.059,0-.108-.048-.108-.108s.048-.108.108-.108h438.918c.06,0,.108.048.108.108s-.048.108-.108.108Z" style="fill: #c3e7f0;"/>
                  <path d="M407.497,53.83H-31.421c-.059,0-.108-.048-.108-.108s.048-.108.108-.108h438.918c.06,0,.108.048.108.108s-.048.108-.108.108Z" style="fill: #c3e7f0;"/>
                  <path d="M407.497,90.148H-31.421c-.059,0-.108-.048-.108-.108s.048-.108.108-.108h438.918c.06,0,.108.048.108.108s-.048.108-.108.108Z" style="fill: #c3e7f0;"/>
                  <path d="M407.497,126.466H-31.421c-.059,0-.108-.048-.108-.108s.048-.108.108-.108h438.918c.06,0,.108.048.108.108s-.048.108-.108.108Z" style="fill: #c3e7f0;"/>
                  <path d="M407.497,162.784H-31.421c-.059,0-.108-.048-.108-.108s.048-.108.108-.108h438.918c.06,0,.108.048.108.108s-.048.108-.108.108Z" style="fill: #c3e7f0;"/>
                  <path d="M407.497,199.103H-31.421c-.059,0-.108-.048-.108-.108s.048-.108.108-.108h438.918c.06,0,.108.048.108.108s-.048.108-.108.108Z" style="fill: #c3e7f0;"/>
                  <path d="M407.497,235.42H-31.421c-.059,0-.108-.048-.108-.108s.048-.108.108-.108h438.918c.06,0,.108.048.108.108s-.048.108-.108.108Z" style="fill: #c3e7f0;"/>
                  <path d="M407.497,271.739H-31.421c-.059,0-.108-.048-.108-.108s.048-.108.108-.108h438.918c.06,0,.108.048.108.108s-.048.108-.108.108Z" style="fill: #c3e7f0;"/>
                  <path d="M407.497,308.057H-31.421c-.059,0-.108-.048-.108-.108s.048-.108.108-.108h438.918c.06,0,.108.048.108.108s-.048.108-.108.108Z" style="fill: #c3e7f0;"/>
                  <path d="M407.497,344.375H-31.421c-.059,0-.108-.048-.108-.108s.048-.108.108-.108h438.918c.06,0,.108.048.108.108s-.048.108-.108.108Z" style="fill: #c3e7f0;"/>
                  <path d="M407.497,380.693H-31.421c-.059,0-.108-.048-.108-.108s.048-.108.108-.108h438.918c.06,0,.108.048.108.108s-.048.108-.108.108Z" style="fill: #c3e7f0;"/>
                  <path d="M407.497,417.011H-31.421c-.059,0-.108-.048-.108-.108s.048-.108.108-.108h438.918c.06,0,.108.048.108.108s-.048.108-.108.108Z" style="fill: #c3e7f0;"/>
                  <path d="M407.497,453.329H-31.421c-.059,0-.108-.048-.108-.108s.048-.108.108-.108h438.918c.06,0,.108.048.108.108s-.048.108-.108.108Z" style="fill: #c3e7f0;"/>
                  <path d="M407.497,489.647H-31.421c-.059,0-.108-.048-.108-.108s.048-.108.108-.108h438.918c.06,0,.108.048.108.108s-.048.108-.108.108Z" style="fill: #c3e7f0;"/>
                  <path d="M407.497,525.966H-31.421c-.059,0-.108-.048-.108-.108s.048-.108.108-.108h438.918c.06,0,.108.048.108.108s-.048.108-.108.108Z" style="fill: #c3e7f0;"/>
                </g>
              </g>
              <g>
                <g>
                  <path d="M369.628,572.692c-.184,0-.332-.149-.332-.332V-27.511c0-.183.149-.332.332-.332s.332.149.332.332v599.871c0,.183-.148.332-.332.332Z" style="fill: #4c00e7;"/>
                  <path d="M333.31,572.692c-.183,0-.332-.149-.332-.332V-27.511c0-.183.149-.332.332-.332s.332.149.332.332v599.871c0,.183-.149.332-.332.332Z" style="fill: #4c00e7;"/>
                  <path d="M296.992,572.692c-.184,0-.332-.149-.332-.332V-27.511c0-.183.148-.332.332-.332s.332.149.332.332v599.871c0,.183-.149.332-.332.332Z" style="fill: #4c00e7;"/>
                  <path d="M260.674,572.692c-.184,0-.332-.149-.332-.332V-27.511c0-.183.148-.332.332-.332s.332.149.332.332v599.871c0,.183-.149.332-.332.332Z" style="fill: #4c00e7;"/>
                  <path d="M224.356,572.692c-.184,0-.332-.149-.332-.332V-27.511c0-.183.149-.332.332-.332s.332.149.332.332v599.871c0,.183-.149.332-.332.332Z" style="fill: #4c00e7;"/>
                  <path d="M188.038,572.692c-.184,0-.332-.149-.332-.332V-27.511c0-.183.148-.332.332-.332s.332.149.332.332v599.871c0,.183-.149.332-.332.332Z" style="fill: #4c00e7;"/>
                  <path d="M151.72,572.692c-.184,0-.332-.149-.332-.332V-27.511c0-.183.149-.332.332-.332s.332.149.332.332v599.871c0,.183-.149.332-.332.332Z" style="fill: #4c00e7;"/>
                  <path d="M115.402,572.692c-.184,0-.332-.149-.332-.332V-27.511c0-.183.149-.332.332-.332s.332.149.332.332v599.871c0,.183-.148.332-.332.332Z" style="fill: #4c00e7;"/>
                  <path d="M79.084,572.692c-.184,0-.332-.149-.332-.332V-27.511c0-.183.149-.332.332-.332s.332.149.332.332v599.871c0,.183-.148.332-.332.332Z" style="fill: #4c00e7;"/>
                  <path d="M42.765,572.692c-.183,0-.332-.149-.332-.332V-27.511c0-.183.149-.332.332-.332s.332.149.332.332v599.871c0,.183-.149.332-.332.332Z" style="fill: #4c00e7;"/>
                  <path d="M6.447,572.692c-.183,0-.332-.149-.332-.332V-27.511c0-.183.149-.332.332-.332s.332.149.332.332v599.871c0,.183-.149.332-.332.332Z" style="fill: #4c00e7;"/>
                </g>
                <g style="opacity: .2;">
                  <path d="M369.628,573.522c-.642,0-1.163-.521-1.163-1.162V-27.511c0-.642.521-1.163,1.163-1.163s1.162.521,1.162,1.163v599.871c0,.642-.521,1.162-1.162,1.162Z" style="fill: #7ed1e2;"/>
                  <path d="M333.31,573.522c-.642,0-1.162-.521-1.162-1.162V-27.511c0-.642.521-1.163,1.162-1.163s1.163.521,1.163,1.163v599.871c0,.642-.521,1.162-1.163,1.162Z" style="fill: #7ed1e2;"/>
                  <path d="M296.992,573.522c-.642,0-1.162-.521-1.162-1.162V-27.511c0-.642.521-1.163,1.162-1.163s1.163.521,1.163,1.163v599.871c0,.642-.521,1.162-1.163,1.162Z" style="fill: #7ed1e2;"/>
                  <path d="M260.674,573.522c-.642,0-1.162-.521-1.162-1.162V-27.511c0-.642.521-1.163,1.162-1.163s1.163.521,1.163,1.163v599.871c0,.642-.521,1.162-1.163,1.162Z" style="fill: #7ed1e2;"/>
                  <path d="M224.356,573.522c-.642,0-1.163-.521-1.163-1.162V-27.511c0-.642.521-1.163,1.163-1.163s1.163.521,1.163,1.163v599.871c0,.642-.521,1.162-1.163,1.162Z" style="fill: #7ed1e2;"/>
                  <path d="M188.038,573.522c-.642,0-1.162-.521-1.162-1.162V-27.511c0-.642.521-1.163,1.162-1.163s1.163.521,1.163,1.163v599.871c0,.642-.521,1.162-1.163,1.162Z" style="fill: #7ed1e2;"/>
                  <path d="M151.72,573.522c-.642,0-1.163-.521-1.163-1.162V-27.511c0-.642.521-1.163,1.163-1.163s1.162.521,1.162,1.163v599.871c0,.642-.521,1.162-1.162,1.162Z" style="fill: #7ed1e2;"/>
                  <path d="M115.402,573.522c-.642,0-1.163-.521-1.163-1.162V-27.511c0-.642.521-1.163,1.163-1.163s1.162.521,1.162,1.163v599.871c0,.642-.521,1.162-1.162,1.162Z" style="fill: #7ed1e2;"/>
                  <path d="M79.084,573.522c-.642,0-1.163-.521-1.163-1.162V-27.511c0-.642.521-1.163,1.163-1.163s1.162.521,1.162,1.163v599.871c0,.642-.521,1.162-1.162,1.162Z" style="fill: #7ed1e2;"/>
                  <path d="M42.765,573.522c-.642,0-1.162-.521-1.162-1.162V-27.511c0-.642.521-1.163,1.162-1.163s1.163.521,1.163,1.163v599.871c0,.642-.521,1.162-1.163,1.162Z" style="fill: #7ed1e2;"/>
                  <path d="M6.447,573.522c-.642,0-1.162-.521-1.162-1.162V-27.511c0-.642.52-1.163,1.162-1.163s1.163.521,1.163,1.163v599.871c0,.642-.52,1.162-1.163,1.162Z" style="fill: #7ed1e2;"/>
                </g>
                <g style="opacity: .25;">
                  <path d="M369.628,573.356c-.55,0-.996-.446-.996-.996V-27.511c0-.55.446-.996.996-.996s.996.446.996.996v599.871c0,.55-.446.996-.996.996Z" style="fill: #64cade;"/>
                  <path d="M333.31,573.356c-.55,0-.996-.446-.996-.996V-27.511c0-.55.446-.996.996-.996s.996.446.996.996v599.871c0,.55-.446.996-.996.996Z" style="fill: #64cade;"/>
                  <path d="M296.992,573.356c-.55,0-.996-.446-.996-.996V-27.511c0-.55.446-.996.996-.996s.996.446.996.996v599.871c0,.55-.446.996-.996.996Z" style="fill: #64cade;"/>
                  <path d="M260.674,573.356c-.55,0-.996-.446-.996-.996V-27.511c0-.55.446-.996.996-.996s.996.446.996.996v599.871c0,.55-.446.996-.996.996Z" style="fill: #64cade;"/>
                  <path d="M224.356,573.356c-.551,0-.997-.446-.997-.996V-27.511c0-.55.446-.996.997-.996s.996.446.996.996v599.871c0,.55-.446.996-.996.996Z" style="fill: #64cade;"/>
                  <path d="M188.038,573.356c-.55,0-.996-.446-.996-.996V-27.511c0-.55.446-.996.996-.996s.996.446.996.996v599.871c0,.55-.446.996-.996.996Z" style="fill: #64cade;"/>
                  <path d="M151.72,573.356c-.55,0-.996-.446-.996-.996V-27.511c0-.55.446-.996.996-.996s.996.446.996.996v599.871c0,.55-.446.996-.996.996Z" style="fill: #64cade;"/>
                  <path d="M115.402,573.356c-.55,0-.996-.446-.996-.996V-27.511c0-.55.446-.996.996-.996s.996.446.996.996v599.871c0,.55-.446.996-.996.996Z" style="fill: #64cade;"/>
                  <path d="M79.084,573.356c-.55,0-.996-.446-.996-.996V-27.511c0-.55.446-.996.996-.996s.996.446.996.996v599.871c0,.55-.446.996-.996.996Z" style="fill: #64cade;"/>
                  <path d="M42.765,573.356c-.55,0-.996-.446-.996-.996V-27.511c0-.55.446-.996.996-.996s.997.446.997.996v599.871c0,.55-.446.996-.997.996Z" style="fill: #64cade;"/>
                  <path d="M6.447,573.356c-.55,0-.996-.446-.996-.996V-27.511c0-.55.446-.996.996-.996s.996.446.996.996v599.871c0,.55-.446.996-.996.996Z" style="fill: #64cade;"/>
                </g>
                <g style="opacity: .3;">
                  <path d="M369.628,573.19c-.459,0-.83-.372-.83-.83V-27.511c0-.459.372-.83.83-.83s.83.372.83.83v599.871c0,.459-.372.83-.83.83Z" style="fill: #00bad5;"/>
                  <path d="M333.31,573.19c-.459,0-.83-.372-.83-.83V-27.511c0-.459.372-.83.83-.83s.83.372.83.83v599.871c0,.459-.372.83-.83.83Z" style="fill: #00bad5;"/>
                  <path d="M296.992,573.19c-.459,0-.83-.372-.83-.83V-27.511c0-.459.372-.83.83-.83s.83.372.83.83v599.871c0,.459-.372.83-.83.83Z" style="fill: #00bad5;"/>
                  <path d="M260.674,573.19c-.459,0-.83-.372-.83-.83V-27.511c0-.459.372-.83.83-.83s.83.372.83.83v599.871c0,.459-.372.83-.83.83Z" style="fill: #00bad5;"/>
                  <path d="M224.356,573.19c-.459,0-.83-.372-.83-.83V-27.511c0-.459.372-.83.83-.83s.83.372.83.83v599.871c0,.459-.372.83-.83.83Z" style="fill: #00bad5;"/>
                  <path d="M188.038,573.19c-.459,0-.83-.372-.83-.83V-27.511c0-.459.372-.83.83-.83s.83.372.83.83v599.871c0,.459-.372.83-.83.83Z" style="fill: #00bad5;"/>
                  <path d="M151.72,573.19c-.459,0-.83-.372-.83-.83V-27.511c0-.459.372-.83.83-.83s.83.372.83.83v599.871c0,.459-.372.83-.83.83Z" style="fill: #00bad5;"/>
                  <path d="M115.402,573.19c-.459,0-.83-.372-.83-.83V-27.511c0-.459.372-.83.83-.83s.83.372.83.83v599.871c0,.459-.372.83-.83.83Z" style="fill: #00bad5;"/>
                  <path d="M79.084,573.19c-.459,0-.83-.372-.83-.83V-27.511c0-.459.372-.83.83-.83s.83.372.83.83v599.871c0,.459-.372.83-.83.83Z" style="fill: #00bad5;"/>
                  <path d="M42.765,573.19c-.459,0-.83-.372-.83-.83V-27.511c0-.459.372-.83.83-.83s.83.372.83.83v599.871c0,.459-.372.83-.83.83Z" style="fill: #00bad5;"/>
                  <path d="M6.447,573.19c-.459,0-.83-.372-.83-.83V-27.511c0-.459.372-.83.83-.83s.83.372.83.83v599.871c0,.459-.372.83-.83.83Z" style="fill: #00bad5;"/>
                </g>
                <g>
                  <path d="M369.628,573.024c-.367,0-.664-.297-.664-.664V-27.511c0-.367.297-.664.664-.664s.664.297.664.664v599.871c0,.367-.297.664-.664.664Z" style="fill: #00bad5;"/>
                  <path d="M333.31,573.024c-.367,0-.664-.297-.664-.664V-27.511c0-.367.297-.664.664-.664s.664.297.664.664v599.871c0,.367-.297.664-.664.664Z" style="fill: #00bad5;"/>
                  <path d="M296.992,573.024c-.367,0-.664-.297-.664-.664V-27.511c0-.367.297-.664.664-.664s.664.297.664.664v599.871c0,.367-.297.664-.664.664Z" style="fill: #00bad5;"/>
                  <path d="M260.674,573.024c-.367,0-.664-.297-.664-.664V-27.511c0-.367.297-.664.664-.664s.664.297.664.664v599.871c0,.367-.297.664-.664.664Z" style="fill: #00bad5;"/>
                  <path d="M224.356,573.024c-.367,0-.664-.297-.664-.664V-27.511c0-.367.297-.664.664-.664s.664.297.664.664v599.871c0,.367-.297.664-.664.664Z" style="fill: #00bad5;"/>
                  <path d="M188.038,573.024c-.367,0-.664-.297-.664-.664V-27.511c0-.367.297-.664.664-.664s.664.297.664.664v599.871c0,.367-.297.664-.664.664Z" style="fill: #00bad5;"/>
                  <path d="M151.72,573.024c-.367,0-.664-.297-.664-.664V-27.511c0-.367.297-.664.664-.664s.664.297.664.664v599.871c0,.367-.297.664-.664.664Z" style="fill: #00bad5;"/>
                  <path d="M115.402,573.024c-.367,0-.664-.297-.664-.664V-27.511c0-.367.297-.664.664-.664s.664.297.664.664v599.871c0,.367-.298.664-.664.664Z" style="fill: #00bad5;"/>
                  <path d="M79.084,573.024c-.367,0-.664-.297-.664-.664V-27.511c0-.367.297-.664.664-.664s.664.297.664.664v599.871c0,.367-.297.664-.664.664Z" style="fill: #00bad5;"/>
                  <path d="M42.765,573.024c-.367,0-.664-.297-.664-.664V-27.511c0-.367.297-.664.664-.664s.664.297.664.664v599.871c0,.367-.297.664-.664.664Z" style="fill: #00bad5;"/>
                  <path d="M6.447,573.024c-.367,0-.664-.297-.664-.664V-27.511c0-.367.297-.664.664-.664s.664.297.664.664v599.871c0,.367-.297.664-.664.664Z" style="fill: #00bad5;"/>
                </g>
                <g>
                  <path d="M369.628,572.899c-.298,0-.54-.242-.54-.54V-27.511c0-.298.242-.54.54-.54s.54.242.54.54v599.871c0,.298-.242.54-.54.54Z" style="fill: #31c1d9;"/>
                  <path d="M333.31,572.899c-.298,0-.54-.242-.54-.54V-27.511c0-.298.242-.54.54-.54s.54.242.54.54v599.871c0,.298-.242.54-.54.54Z" style="fill: #31c1d9;"/>
                  <path d="M296.992,572.899c-.298,0-.54-.242-.54-.54V-27.511c0-.298.242-.54.54-.54s.54.242.54.54v599.871c0,.298-.242.54-.54.54Z" style="fill: #31c1d9;"/>
                  <path d="M260.674,572.899c-.298,0-.54-.242-.54-.54V-27.511c0-.298.242-.54.54-.54s.54.242.54.54v599.871c0,.298-.242.54-.54.54Z" style="fill: #31c1d9;"/>
                  <path d="M224.356,572.899c-.298,0-.54-.242-.54-.54V-27.511c0-.298.242-.54.54-.54s.54.242.54.54v599.871c0,.298-.242.54-.54.54Z" style="fill: #31c1d9;"/>
                  <path d="M188.038,572.899c-.298,0-.54-.242-.54-.54V-27.511c0-.298.242-.54.54-.54s.54.242.54.54v599.871c0,.298-.242.54-.54.54Z" style="fill: #31c1d9;"/>
                  <path d="M151.72,572.899c-.298,0-.54-.242-.54-.54V-27.511c0-.298.242-.54.54-.54s.54.242.54.54v599.871c0,.298-.242.54-.54.54Z" style="fill: #31c1d9;"/>
                  <path d="M115.402,572.899c-.298,0-.54-.242-.54-.54V-27.511c0-.298.242-.54.54-.54s.54.242.54.54v599.871c0,.298-.242.54-.54.54Z" style="fill: #31c1d9;"/>
                  <path d="M79.084,572.899c-.298,0-.54-.242-.54-.54V-27.511c0-.298.242-.54.54-.54s.54.242.54.54v599.871c0,.298-.242.54-.54.54Z" style="fill: #31c1d9;"/>
                  <path d="M42.765,572.899c-.298,0-.54-.242-.54-.54V-27.511c0-.298.242-.54.54-.54s.54.242.54.54v599.871c0,.298-.242.54-.54.54Z" style="fill: #31c1d9;"/>
                  <path d="M6.447,572.899c-.298,0-.54-.242-.54-.54V-27.511c0-.298.242-.54.54-.54s.54.242.54.54v599.871c0,.298-.242.54-.54.54Z" style="fill: #31c1d9;"/>
                </g>
                <g>
                  <path d="M369.628,572.775c-.229,0-.415-.186-.415-.415V-27.511c0-.229.186-.415.415-.415s.415.186.415.415v599.871c0,.229-.186.415-.415.415Z" style="fill: #63cade;"/>
                  <path d="M333.31,572.775c-.229,0-.415-.186-.415-.415V-27.511c0-.229.186-.415.415-.415s.415.186.415.415v599.871c0,.229-.186.415-.415.415Z" style="fill: #63cade;"/>
                  <path d="M296.992,572.775c-.229,0-.415-.186-.415-.415V-27.511c0-.229.186-.415.415-.415s.415.186.415.415v599.871c0,.229-.186.415-.415.415Z" style="fill: #63cade;"/>
                  <path d="M260.674,572.775c-.229,0-.415-.186-.415-.415V-27.511c0-.229.186-.415.415-.415s.415.186.415.415v599.871c0,.229-.186.415-.415.415Z" style="fill: #63cade;"/>
                  <path d="M224.356,572.775c-.229,0-.415-.186-.415-.415V-27.511c0-.229.186-.415.415-.415s.415.186.415.415v599.871c0,.229-.186.415-.415.415Z" style="fill: #63cade;"/>
                  <path d="M188.038,572.775c-.229,0-.415-.186-.415-.415V-27.511c0-.229.186-.415.415-.415s.415.186.415.415v599.871c0,.229-.186.415-.415.415Z" style="fill: #63cade;"/>
                  <path d="M151.72,572.775c-.229,0-.415-.186-.415-.415V-27.511c0-.229.186-.415.415-.415s.415.186.415.415v599.871c0,.229-.186.415-.415.415Z" style="fill: #63cade;"/>
                  <path d="M115.402,572.775c-.229,0-.415-.186-.415-.415V-27.511c0-.229.186-.415.415-.415s.415.186.415.415v599.871c0,.229-.186.415-.415.415Z" style="fill: #63cade;"/>
                  <path d="M79.084,572.775c-.229,0-.415-.186-.415-.415V-27.511c0-.229.186-.415.415-.415s.415.186.415.415v599.871c0,.229-.186.415-.415.415Z" style="fill: #63cade;"/>
                  <path d="M42.765,572.775c-.229,0-.415-.186-.415-.415V-27.511c0-.229.186-.415.415-.415s.415.186.415.415v599.871c0,.229-.186.415-.415.415Z" style="fill: #63cade;"/>
                  <path d="M6.447,572.775c-.229,0-.415-.186-.415-.415V-27.511c0-.229.186-.415.415-.415s.415.186.415.415v599.871c0,.229-.186.415-.415.415Z" style="fill: #63cade;"/>
                </g>
                <g>
                  <path d="M369.628,572.634c-.151,0-.274-.123-.274-.274V-27.511c0-.151.123-.274.274-.274s.274.123.274.274v599.871c0,.151-.123.274-.274.274Z" style="fill: #8fd6e5;"/>
                  <path d="M333.31,572.634c-.151,0-.274-.123-.274-.274V-27.511c0-.151.123-.274.274-.274s.274.123.274.274v599.871c0,.151-.123.274-.274.274Z" style="fill: #8fd6e5;"/>
                  <path d="M296.992,572.634c-.151,0-.274-.123-.274-.274V-27.511c0-.151.123-.274.274-.274s.274.123.274.274v599.871c0,.151-.123.274-.274.274Z" style="fill: #8fd6e5;"/>
                  <path d="M260.674,572.634c-.151,0-.274-.123-.274-.274V-27.511c0-.151.123-.274.274-.274s.274.123.274.274v599.871c0,.151-.123.274-.274.274Z" style="fill: #8fd6e5;"/>
                  <path d="M224.356,572.634c-.152,0-.274-.123-.274-.274V-27.511c0-.151.123-.274.274-.274s.274.123.274.274v599.871c0,.151-.123.274-.274.274Z" style="fill: #8fd6e5;"/>
                  <path d="M188.038,572.634c-.151,0-.274-.123-.274-.274V-27.511c0-.151.123-.274.274-.274s.274.123.274.274v599.871c0,.151-.123.274-.274.274Z" style="fill: #8fd6e5;"/>
                  <path d="M151.72,572.634c-.151,0-.274-.123-.274-.274V-27.511c0-.151.123-.274.274-.274s.274.123.274.274v599.871c0,.151-.123.274-.274.274Z" style="fill: #8fd6e5;"/>
                  <path d="M115.402,572.634c-.151,0-.274-.123-.274-.274V-27.511c0-.151.123-.274.274-.274s.274.123.274.274v599.871c0,.151-.123.274-.274.274Z" style="fill: #8fd6e5;"/>
                  <path d="M79.084,572.634c-.151,0-.274-.123-.274-.274V-27.511c0-.151.123-.274.274-.274s.274.123.274.274v599.871c0,.151-.123.274-.274.274Z" style="fill: #8fd6e5;"/>
                  <path d="M42.765,572.634c-.151,0-.274-.123-.274-.274V-27.511c0-.151.123-.274.274-.274s.274.123.274.274v599.871c0,.151-.123.274-.274.274Z" style="fill: #8fd6e5;"/>
                  <path d="M6.447,572.634c-.151,0-.274-.123-.274-.274V-27.511c0-.151.123-.274.274-.274s.274.123.274.274v599.871c0,.151-.123.274-.274.274Z" style="fill: #8fd6e5;"/>
                </g>
                <g>
                  <path d="M369.628,572.468c-.06,0-.108-.048-.108-.108V-27.511c0-.06.048-.108.108-.108s.108.048.108.108v599.871c0,.06-.048.108-.108.108Z" style="fill: #c3e7f0;"/>
                  <path d="M333.31,572.468c-.06,0-.108-.048-.108-.108V-27.511c0-.06.048-.108.108-.108s.108.048.108.108v599.871c0,.06-.048.108-.108.108Z" style="fill: #c3e7f0;"/>
                  <path d="M296.992,572.468c-.06,0-.108-.048-.108-.108V-27.511c0-.06.048-.108.108-.108s.108.048.108.108v599.871c0,.06-.048.108-.108.108Z" style="fill: #c3e7f0;"/>
                  <path d="M260.674,572.468c-.06,0-.108-.048-.108-.108V-27.511c0-.06.048-.108.108-.108s.108.048.108.108v599.871c0,.06-.048.108-.108.108Z" style="fill: #c3e7f0;"/>
                  <path d="M224.356,572.468c-.06,0-.108-.048-.108-.108V-27.511c0-.06.048-.108.108-.108s.108.048.108.108v599.871c0,.06-.048.108-.108.108Z" style="fill: #c3e7f0;"/>
                  <path d="M188.038,572.468c-.06,0-.108-.048-.108-.108V-27.511c0-.06.048-.108.108-.108s.108.048.108.108v599.871c0,.06-.048.108-.108.108Z" style="fill: #c3e7f0;"/>
                  <path d="M151.72,572.468c-.06,0-.108-.048-.108-.108V-27.511c0-.06.048-.108.108-.108s.108.048.108.108v599.871c0,.06-.048.108-.108.108Z" style="fill: #c3e7f0;"/>
                  <path d="M115.402,572.468c-.06,0-.108-.048-.108-.108V-27.511c0-.06.048-.108.108-.108s.108.048.108.108v599.871c0,.06-.048.108-.108.108Z" style="fill: #c3e7f0;"/>
                  <path d="M79.084,572.468c-.06,0-.108-.048-.108-.108V-27.511c0-.06.048-.108.108-.108s.108.048.108.108v599.871c0,.06-.048.108-.108.108Z" style="fill: #c3e7f0;"/>
                  <path d="M42.765,572.468c-.06,0-.108-.048-.108-.108V-27.511c0-.06.048-.108.108-.108s.108.048.108.108v599.871c0,.06-.048.108-.108.108Z" style="fill: #c3e7f0;"/>
                  <path d="M6.447,572.468c-.06,0-.108-.048-.108-.108V-27.511c0-.06.048-.108.108-.108s.108.048.108.108v599.871c0,.06-.048.108-.108.108Z" style="fill: #c3e7f0;"/>
                </g>
              </g>
            </g>
          </g>
        </g>
        <path d="M286.166,286.154c-1.301-1.601-3.927-7.737-5.1-9.769-1.172-2.032-5.549-8.89-8.91-12.094-.829-.791-1.663-1.355-2.449-1.757-2.431-5.577-5.384-28.014-7.046-45.077-1.758-18.054-7.503-25.205-7.503-25.205.821-14.771-4.103-30.129-3.947-33.763.156-3.634,0-14.967,0-14.967-.86-18.601-10.707-22.196-21.414-25.635-10.707-3.439-23.759-10.004-25.713-11.723-1.954-1.719-1.954-4.533-2.032-9.144-.076-4.462,1.823-9.218,3.362-14.618,4.144-.098,6.586-12.54,4.531-13.674-.742-.409-1.298-.441-1.713-.299.651-6.329.378-13.456-2.664-19.005-5.783-10.551-17.038-10.16-17.038-10.16h-.987s-11.254-.391-17.038,10.16c-3.042,5.549-3.315,12.676-2.664,19.005-.414-.141-.971-.11-1.712.299-2.055,1.134.388,13.575,4.531,13.674,1.539,5.401,3.438,10.157,3.362,14.618-.078,4.611-.078,7.425-2.032,9.144-1.954,1.719-15.006,8.284-25.713,11.723s-20.555,7.034-21.414,25.635c0,0-.156,11.333,0,14.967.156,3.634-4.767,18.992-3.947,33.763,0,0-5.744,7.151-7.503,25.205-1.662,17.064-4.616,39.5-7.046,45.077-.786.402-1.62.966-2.45,1.757-3.361,3.204-7.737,10.062-8.91,12.094s-3.798,8.168-5.1,9.769c-1.524,1.876-1.315,4.643,1.407,3.341,2.696-1.29,5.412-4.435,6.506-6.311,1.094-1.876,1.876-2.345,1.876-2.345,0,0-1.454,12.29-1.859,16.023-.449,4.142-2.009,9.807.14,10.393,2.362.644,2.97-2.501,3.361-4.924.391-2.423,2.816-14.069,3.587-14.771.96-.875.538.482.321,3.282-.073.948-.391,5.705-.86,8.753-.469,3.048-2.032,9.848,1.251,9.457,3.282-.391,4.064-18.757,4.611-20.086.547-1.329,1.016-.781.703,2.501-.099,1.038-1.798,13.364-1.172,15.865.625,2.501,3.048,2.11,3.83-1.094.781-3.204,1.563-16.178,2.11-17.116.547-.938.703.782.547,3.126-.115,1.716-1.094,11.098.782,11.489,1.876.391,2.638-.762,3.158-7.62.456-6.005.515-9.34.828-13.169.313-3.83.703-15.084-1.172-18.523,0,0,2.345-11.567,7.19-21.571,4.846-10.004,12.036-27.511,11.723-36.108-.26-7.139,5.732-31.953,7.951-40.344.21,2.092.517,4.307.959,6.581,2.188,11.254,5.471,24.853,5.002,33.294-.469,8.441-1.407,21.258-2.345,26.26-.938,5.002-6.565,24.384-6.409,48.3s3.439,52.129,5.002,58.069c1.563,5.94,2.013,11.827,1.544,15.891-.469,4.064-1.388,13.104-.45,19.2,0,0-3.751,15.944-.781,37.671,2.97,21.727,8.284,45.642,8.284,48.143v.994c-.255,1.166-.539,2.326-.795,3.493-.31,1.41-.518,2.82-.557,4.266-.038,1.429.042,2.854.067,4.282.017,1.001-.01,2.002-.107,2.995-.718,1.458-1.584,2.86-2.472,4.201-1.205,1.82-2.568,3.53-3.954,5.215-1.399,1.7-2.827,3.378-4.161,5.13-.663.871-1.303,1.76-1.903,2.676-.626.955-1.333,1.959-1.556,3.1-.206,1.052.093,2.114,1.095,2.615.2.1.412.163.625.191-.027.322-.008.652.085.992.34,1.245,1.607,2.14,2.882,2.176.173.594.609,1.045,1.286,1.238.829.237,1.729-.011,2.469-.44.037.19.098.376.19.555.462.903,1.493,1.29,2.462,1.26,1.146-.035,2.117-.709,2.88-1.518.395-.419.753-.867,1.111-1.314-.15.603-.164,1.232.06,1.819.417,1.093,1.605,1.644,2.697,1.799,1.036.147,2.083-.06,3.016-.526.357-.179.724-.407,1.064-.674.638-.314,1.219-.769,1.716-1.262,1.103-1.095,1.864-2.457,2.437-3.89,1.27-3.171,1.679-6.616,2.341-9.945.125-.626.254-1.258.398-1.888.082.057.213.05.325-.063,1.422-1.443,1.97-3.776,2.14-5.729.208-2.395-.156-4.784-.6-7.132-.47-2.492-.935-4.975-1.23-7.496-.294-2.518-.456-5.049-.576-7.581-.066-1.391-.126-2.783-.185-4.175-.004-.102-.01-.204-.015-.306.285-3.865.614-7.629.988-10.847,1.563-13.443,7.034-35.795,5.627-47.362-1.407-11.567.307-41.109,1.797-49.55,1.49-8.441,8.675-55.959,7.112-69.558l1.744-.158,1.744.158c-1.563,13.599,5.622,61.117,7.112,69.558,1.49,8.441,3.204,37.983,1.797,49.55s4.064,33.919,5.627,47.362c.374,3.218.703,6.982.988,10.847-.005.102-.011.204-.015.306-.06,1.392-.119,2.783-.185,4.175-.12,2.532-.282,5.063-.576,7.581-.294,2.521-.759,5.004-1.23,7.496-.443,2.348-.808,4.737-.6,7.132.17,1.953.718,4.287,2.14,5.729.112.113.242.12.325.063.143.63.273,1.262.398,1.888.663,3.329,1.072,6.775,2.341,9.945.574,1.432,1.334,2.795,2.437,3.89.497.493,1.078.949,1.716,1.262.34.267.706.495,1.064.674.932.466,1.979.673,3.016.526,1.092-.155,2.279-.707,2.697-1.799.224-.587.21-1.216.06-1.819.358.447.716.895,1.111,1.314.763.808,1.734,1.483,2.88,1.518.969.03,2-.357,2.462-1.26.091-.179.152-.365.19-.555.74.429,1.64.676,2.469.44.677-.193,1.114-.644,1.286-1.238,1.275-.036,2.542-.931,2.882-2.176.093-.34.112-.67.085-.992.213-.029.425-.091.625-.191,1.002-.5,1.301-1.562,1.095-2.615-.223-1.141-.93-2.145-1.556-3.1-.6-.916-1.24-1.805-1.903-2.676-1.334-1.753-2.762-3.43-4.161-5.13-1.386-1.685-2.749-3.394-3.954-5.215-.888-1.341-1.754-2.743-2.472-4.201-.096-.994-.124-1.994-.107-2.995.024-1.428.105-2.853.067-4.282-.039-1.445-.247-2.855-.557-4.266-.256-1.166-.539-2.326-.795-3.493v-.994c0-2.501,5.314-26.416,8.284-48.143,2.97-21.727-.782-37.671-.782-37.671.938-6.096.019-15.136-.45-19.2-.469-4.064-.019-9.951,1.544-15.891,1.563-5.94,4.846-34.154,5.002-58.069.156-23.915-5.471-43.298-6.409-48.3-.938-5.002-1.876-17.819-2.345-26.26-.469-8.441,2.813-22.04,5.002-33.294.442-2.274.748-4.489.959-6.581,2.219,8.391,8.21,33.205,7.951,40.344-.313,8.597,6.878,26.104,11.723,36.108s7.19,21.571,7.19,21.571c-1.876,3.439-1.485,14.693-1.172,18.523.313,3.83.372,7.164.828,13.169.52,6.858,1.282,8.011,3.158,7.62,1.876-.391.897-9.773.782-11.489-.157-2.345,0-4.064.547-3.126.547.938,1.329,13.912,2.11,17.116.782,3.204,3.204,3.595,3.83,1.094.625-2.501-1.073-14.827-1.172-15.865-.313-3.282.156-3.83.703-2.501.547,1.329,1.329,19.695,4.611,20.086s1.719-6.409,1.25-9.457c-.469-3.048-.786-7.805-.86-8.753-.217-2.8-.64-4.157.321-3.282.771.702,3.196,12.348,3.587,14.771.391,2.423.999,5.568,3.361,4.924,2.149-.586.589-6.251.14-10.393-.405-3.734-1.859-16.023-1.859-16.023,0,0,.782.469,1.876,2.345,1.094,1.876,3.81,5.021,6.506,6.311,2.722,1.302,2.931-1.466,1.407-3.341Z" style="fill: #fff;"/>
      </g>
    </g>
  </g>
</svg>